<svg width="48" height="48" viewBox="0 0 48 48" fill="none" xmlns="http://www.w3.org/2000/svg">
<g clip-path="url(#clip0_1411_18)">
<path fill-rule="evenodd" clip-rule="evenodd" d="M31.031 15.0298H21.863C19.4851 15.0298 18.623 15.2774 17.7542 15.7421C16.8962 16.1981 16.1946 16.901 15.7402 17.76C15.2755 18.6259 15.0278 19.488 15.0278 21.8659V31.0339H4.9728C3.2448 31.0339 2.61792 30.8544 1.98432 30.5155C1.36043 30.184 0.849924 29.6735 0.5184 29.0496C0.18048 28.4141 0 27.7872 0 26.0592V4.9728C0 3.2448 0.18048 2.61792 0.5184 1.98432C0.849515 1.36021 1.35969 0.849372 1.98336 0.51744C2.61792 0.18048 3.2448 0 4.9728 0H26.0592C27.7872 0 28.4141 0.18048 29.0477 0.5184C29.6716 0.849924 30.1821 1.36043 30.5136 1.98432C30.8515 2.61792 31.032 3.2448 31.032 4.9728L31.031 15.0298Z" fill="#DCE5FA"/>
<path d="M13.8987 7.22039C13.8987 6.76247 13.5195 6.39191 13.051 6.39191C12.5826 6.39191 12.2034 6.76343 12.2034 7.22039V10.9106L7.26415 6.06455C7.10444 5.908 6.88971 5.82031 6.66607 5.82031C6.44243 5.82031 6.2277 5.908 6.06799 6.06455C5.90671 6.21815 5.82031 6.42935 5.82031 6.65015C5.82031 6.87095 5.91631 7.08503 6.06799 7.23863L11.0072 12.0866H7.24879C6.78031 12.0866 6.40111 12.4581 6.40111 12.9189C6.40111 13.3797 6.78031 13.7474 7.24879 13.7474H13.0539C13.1659 13.7489 13.277 13.7274 13.3803 13.6841C13.5867 13.6015 13.7518 13.4402 13.8382 13.2329C13.8862 13.1349 13.9016 13.0265 13.9016 12.918L13.9054 7.22135L13.8987 7.22039Z" fill="#295795"/>
<path fill-rule="evenodd" clip-rule="evenodd" d="M21.9416 16.9697H43.0279C44.7559 16.9697 45.3828 17.1502 46.0164 17.491C46.6385 17.8212 47.1531 18.331 47.4823 18.9569C47.8203 19.5867 48.0008 20.2145 48.0008 21.9425V43.0279C48.0008 44.7559 47.8212 45.3828 47.4823 46.0164C47.1508 46.6403 46.6403 47.1508 46.0164 47.4823C45.3828 47.8203 44.7569 48.0008 43.0279 48.0008H21.9416C20.2136 48.0008 19.5867 47.8212 18.9531 47.4823C18.331 47.1521 17.8203 46.6375 17.4872 46.0164C17.1492 45.3828 16.9688 44.7569 16.9688 43.0279V21.9416C16.9688 20.2136 17.1492 19.5867 17.4872 18.9531C17.8212 18.331 18.332 17.8203 18.9531 17.4872C19.5867 17.1492 20.2136 16.9688 21.9416 16.9688V16.9697Z" fill="#5F83C6"/>
<path fill-rule="evenodd" clip-rule="evenodd" d="M39.84 24.9609C40.8979 24.9609 41.76 25.823 41.76 26.8809C41.76 27.9389 40.8979 28.8009 39.84 28.8009C38.782 28.8009 37.92 27.9389 37.92 26.8809C37.92 25.823 38.782 24.9609 39.84 24.9609ZM29.376 37.4409H23.2857C23.1897 37.4409 23.1206 37.3958 23.0793 37.3209C23.038 37.2461 23.038 37.1597 23.0832 37.0886L29.3942 26.5094C29.4172 26.4765 29.4478 26.4497 29.4834 26.4312C29.519 26.4126 29.5586 26.403 29.5987 26.403C29.6388 26.403 29.6784 26.4126 29.714 26.4312C29.7495 26.4497 29.7802 26.4765 29.8032 26.5094L33.4819 32.6745L35.9491 30.1545C35.9942 30.1065 36.0547 30.0835 36.118 30.0835H36.1257C36.1929 30.0835 36.2572 30.1123 36.2985 30.1661L42.1545 37.0109C42.2217 37.0521 42.2601 37.1261 42.2601 37.2057C42.2601 37.3334 42.1516 37.4381 42.024 37.4381H29.376V37.4342V37.4409Z" fill="white"/>
</g>
<defs>
<clipPath id="clip0_1411_18">
<rect width="48" height="48" fill="white"/>
</clipPath>
</defs>
</svg>
