<svg width="48" height="48" viewBox="0 0 48 48" fill="none" xmlns="http://www.w3.org/2000/svg">
<g clip-path="url(#clip0_1411_12)">
<path fill-rule="evenodd" clip-rule="evenodd" d="M16.9697 32.97H26.1377C28.5156 32.97 29.3777 32.7224 30.2465 32.2577C31.1053 31.8026 31.8071 31.0995 32.2606 30.2398C32.7252 29.3739 32.9729 28.5118 32.9729 26.1339V16.9688H43.0279C44.7559 16.9688 45.3828 17.1492 46.0164 17.4871C46.65 17.8251 47.1454 18.3223 47.4823 18.9531C47.8193 19.5838 48.0008 20.2107 48.0008 21.9416V43.027C48.0008 44.755 47.8212 45.3819 47.4823 46.0155C47.1508 46.6394 46.6403 47.1499 46.0164 47.4814C45.3828 47.8193 44.7569 47.9998 43.0279 47.9998H21.9416C20.2136 47.9998 19.5867 47.8203 18.9531 47.4814C18.3195 47.1425 17.828 46.6462 17.4872 46.0155C17.1464 45.3847 16.9688 44.7559 16.9688 43.027L16.9697 32.97Z" fill="#DCE5FA"/>
<path d="M42.1818 35.6497C42.1818 35.1918 41.8026 34.8212 41.3342 34.8212C40.8657 34.8212 40.4865 35.1927 40.4865 35.6497V39.3399L35.5473 34.4948C35.2132 34.1684 34.6814 34.1684 34.3473 34.4948C34.269 34.5708 34.2068 34.6616 34.1643 34.762C34.1217 34.8625 34.0997 34.9704 34.0996 35.0794C34.0998 35.1891 34.1217 35.2976 34.1643 35.3986C34.2068 35.4996 34.269 35.5912 34.3473 35.6679L39.2865 40.5159H35.529C35.0606 40.5159 34.6814 40.8874 34.6814 41.3482C34.6814 41.809 35.0606 42.1806 35.529 42.1806H41.3371C41.4455 42.1767 41.555 42.1585 41.6596 42.1134C41.7615 42.0727 41.8544 42.0123 41.933 41.9357C42.0116 41.8591 42.0743 41.7678 42.1175 41.667C42.1655 41.5662 42.1809 41.4558 42.1809 41.3482L42.1847 35.6516L42.1818 35.6497Z" fill="#295795"/>
<path fill-rule="evenodd" clip-rule="evenodd" d="M4.97664 0H26.0851C27.8131 0 28.44 0.18048 29.0736 0.5184C29.6995 0.84864 30.2102 1.3632 30.5395 1.9872C30.8774 2.61696 31.0579 3.24768 31.0579 4.97568V26.0803C31.0579 27.8131 30.8784 28.439 30.5395 29.0726C30.2093 29.6947 29.6995 30.2093 29.0736 30.5386C28.44 30.8765 27.8141 31.057 26.0851 31.057H4.97664C3.24864 31.057 2.61792 30.8774 1.98816 30.5386C1.36224 30.2083 0.85152 29.6938 0.52224 29.0726C0.18048 28.44 0 27.8141 0 26.0813V4.97664C0 3.24864 0.18048 2.61792 0.5184 1.98816C0.84864 1.36224 1.3632 0.85152 1.9872 0.51936C2.6112 0.1872 3.24768 0 4.97664 0Z" fill="#5F83C6"/>
<path fill-rule="evenodd" clip-rule="evenodd" d="M27.4864 16.4735V19.3382C27.4864 19.6569 27.2427 19.9161 26.898 19.9161C26.3987 19.9161 26.2644 19.6089 26.1559 18.934C25.6604 19.5561 24.9752 19.9574 23.8979 19.9574C21.2162 19.9574 20.1894 18.1084 20.1894 15.9782C20.1894 13.4092 21.7941 11.9961 24.1494 11.9961C26.0736 11.9961 27.0967 13.1481 27.0967 13.822C27.0967 14.4268 26.6551 14.5833 26.2826 14.5833C25.428 14.5833 25.7453 13.391 24.0554 13.391C22.8628 13.391 21.9213 14.1715 21.9213 16.0943C21.9213 17.5919 22.6602 18.6259 24.0774 18.6259C24.9963 18.6259 25.7987 18.0038 25.8823 17.0735H24.7581C24.3903 17.0735 23.9786 16.9391 23.9786 16.4111C23.9786 15.9887 24.2223 15.7487 24.6534 15.7487H26.7876C27.2936 15.7487 27.496 16.0003 27.496 16.4764L27.4864 16.4735Z" fill="white"/>
<path fill-rule="evenodd" clip-rule="evenodd" d="M3.70711 18.8707V13.0128C3.70711 12.2448 4.1083 12 4.71992 12H7.37148C8.8271 12 10 12.72 10 14.4077C10 15.7901 9.04026 16.8154 7.35996 16.8154H5.43994V18.8813C5.43994 19.3997 5.09921 19.7472 4.574 19.7472C4.04879 19.7472 3.70807 19.3987 3.70807 18.8813L3.70711 18.8707ZM5.43994 13.3286V15.481H7.05276C7.7508 15.481 8.26814 15.0614 8.26814 14.4058C8.26814 13.6445 7.73067 13.3306 6.87612 13.3306L5.43994 13.3286Z" fill="white"/>
<line x1="12" y1="12" x2="12" y2="20" stroke="white" stroke-width="2"/>
<line x1="18" y1="12" x2="18" y2="20" stroke="white" stroke-width="2"/>
<line x1="11.8" y1="11.4" x2="17.8" y2="19.4" stroke="white" stroke-width="2"/>
</g>
<defs>
<clipPath id="clip0_1411_12">
<rect width="48" height="48" fill="white"/>
</clipPath>
</defs>
</svg>
