<svg width="300" height="65" viewBox="0 0 300 65" fill="none" xmlns="http://www.w3.org/2000/svg">
<g clip-path="url(#clip0_1393_2)">
<path d="M281.109 34.831H295.689C295.689 34.831 297.089 27.291 291.599 21.641C288.599 18.551 284.919 17.191 280.619 17.321C277.049 17.431 273.619 18.861 271.029 21.321C267.899 24.291 266.379 27.851 266.379 32.051C266.379 36.251 267.799 39.621 270.709 42.531C273.619 45.371 277.069 46.791 281.189 46.791C285.309 46.791 288.699 45.371 291.599 42.531C292.979 41.151 294.019 39.641 294.729 38.001H287.389C287.329 38.071 287.269 38.141 287.199 38.211C285.609 39.801 283.609 40.631 281.199 40.631C278.789 40.631 276.779 39.801 275.129 38.211C273.539 36.551 272.709 34.481 272.709 31.931C272.709 29.381 273.539 27.311 275.129 25.721C276.789 24.061 278.789 23.241 281.199 23.241C283.609 23.241 285.619 24.071 287.199 25.721C288.039 26.521 288.679 27.721 289.089 28.831H286.979C283.739 28.831 281.109 31.461 281.109 34.701V34.831Z" fill="white"/>
<path d="M27.4906 19.8489V7.42891C27.4906 3.80891 30.4206 0.878906 34.0406 0.878906V31.8689C34.0406 36.5789 32.5406 40.2689 29.6006 42.9289C26.6606 45.5889 23.1206 46.9589 19.0906 46.9589C15.0606 46.9589 11.3806 45.5289 8.44062 42.5889C5.57062 39.6489 4.14062 36.1689 4.14062 32.0789C4.14062 27.9889 5.57062 24.4289 8.44062 21.5689C11.3106 18.6289 14.8606 17.1989 19.0906 17.1989C22.3006 17.1989 25.3006 18.2889 26.6006 19.1789L27.4906 19.8589V19.8489ZM18.6406 41.2089C23.6406 41.2089 27.3106 37.4089 27.3106 32.3289C27.3106 27.2489 23.5106 23.4489 18.6406 23.4489C13.7706 23.4489 9.97063 27.1789 9.97063 32.3289C9.97063 37.4789 13.7706 41.2089 18.6406 41.2089Z" fill="white"/>
<path d="M40.6719 46.5188V24.8787C40.6719 21.3387 43.5419 18.4688 47.0819 18.4688V46.5087H40.6719V46.5188Z" fill="white"/>
<path d="M243.201 46.5183H236.531V30.8983C236.531 26.2783 237.751 22.8783 240.121 20.6383C242.561 18.3983 245.471 17.2383 248.781 17.2383C252.091 17.2383 255.011 18.3883 257.441 20.6383C259.881 22.8783 261.101 26.3483 261.101 30.8983V46.5183H254.781V30.8983C254.781 26.0783 252.481 23.4983 248.951 23.4983C245.421 23.4983 243.191 26.0083 243.191 30.8983V46.5183H243.201Z" fill="white"/>
<path d="M206.1 21.6781C209.02 18.7581 212.48 17.3281 216.63 17.3281C220.78 17.3281 224.17 18.7581 227.09 21.6781C230.01 24.5981 231.44 28.0581 231.44 32.1381C231.44 36.2181 230.01 39.7481 227.09 42.6681C224.17 45.5181 220.7 46.9481 216.63 46.9481C212.56 46.9481 209.02 45.5181 206.1 42.6681C203.18 39.7481 201.75 36.2781 201.75 32.1381C201.75 27.9981 203.18 24.5981 206.1 21.6781ZM208.27 32.1381C208.27 34.6481 209.09 36.6881 210.65 38.3181C212.28 39.8781 214.25 40.6981 216.63 40.6981C219.01 40.6981 220.98 39.8781 222.54 38.3181C224.17 36.6881 224.98 34.6481 224.98 32.1381C224.98 29.6281 224.17 27.5881 222.54 26.0281C220.98 24.3981 219.01 23.5781 216.63 23.5781C214.25 23.5781 212.28 24.3981 210.65 26.0281C209.09 27.5881 208.27 29.6281 208.27 32.1381Z" fill="white"/>
<path d="M117.91 40.4714V46.8814H116.22C109.68 46.8814 105.09 43.5714 105.09 35.1014V10.9614C105.09 7.36141 107.96 4.44141 111.5 4.44141V17.6814H117.2V24.0914H111.5V34.9614C111.5 38.6514 113.14 40.4614 116.48 40.4614H117.9L117.91 40.4714Z" fill="white"/>
<path d="M145.672 46.5219V44.2719C145.472 44.4819 145.142 44.6819 144.672 45.0319C143.872 45.5819 140.602 46.9619 137.462 46.9619C133.322 46.9619 129.852 45.5119 127.052 42.6219C124.252 39.6619 122.852 36.1519 122.852 31.9419C122.852 27.7319 124.252 24.2919 127.052 21.3319C129.922 18.3719 133.392 16.9219 137.462 16.9219C141.532 16.9219 144.872 18.3019 147.742 20.9819C150.612 23.6719 152.082 27.3919 152.082 32.1419V46.5119H145.672V46.5219ZM137.112 40.7419C141.862 40.7419 145.582 37.0919 145.582 32.0619C145.582 27.0319 142.002 23.3819 137.112 23.3819C132.222 23.3819 128.642 27.1019 128.642 32.0619C128.642 37.0219 132.362 40.7419 137.112 40.7419Z" fill="white"/>
<path d="M159.559 46.5216V10.7616C159.559 7.22156 162.429 4.35156 165.969 4.35156V46.5116H159.559V46.5216Z" fill="white"/>
<path d="M179.661 46.5181C177.841 46.5181 176.091 45.7081 175.031 44.2281C173.351 41.8981 173.661 38.8381 175.591 36.9181L188.771 23.7381H174.101C174.101 20.1981 176.971 17.3281 180.511 17.3281H191.091C192.911 17.3281 194.661 18.1381 195.721 19.6181C197.401 21.9481 197.091 25.0081 195.161 26.9281L181.981 40.1081H190.891C194.431 40.1081 197.301 42.9781 197.301 46.5181H179.661Z" fill="white"/>
<path d="M68.1486 16.8594C63.9486 16.8594 60.4386 18.3094 57.4686 21.2694C54.5086 24.2294 53.0586 27.7394 53.0586 31.8794C53.0586 36.0194 54.5086 39.5894 57.4686 42.5594C60.4286 45.4494 63.9386 46.8994 68.1486 46.8994C72.3586 46.8994 75.7986 45.4494 78.7586 42.5594C81.7186 39.5994 83.1686 36.0894 83.1686 31.8794C83.1686 27.6694 81.7186 24.2294 78.7586 21.2694C75.7986 18.3094 72.2786 16.8594 68.1486 16.8594ZM74.1386 38.1394C72.5586 39.7194 70.5586 40.5494 68.1486 40.5494C65.7386 40.5494 63.7386 39.7194 62.0886 38.1394C60.5086 36.4894 59.6786 34.4194 59.6786 31.8694C59.6786 29.3194 60.5086 27.2594 62.0886 25.6694C63.7386 24.0194 65.7386 23.1894 68.1486 23.1894C70.5586 23.1894 72.5586 24.0194 74.1386 25.6694C75.7886 27.2494 76.6186 29.3194 76.6186 31.8694C76.6186 34.4194 75.7886 36.4794 74.1386 38.1394Z" fill="white"/>
<path d="M74.1403 55.2778C72.5603 56.8578 70.5603 57.6878 68.1503 57.6878C65.7403 57.6878 63.7403 56.8578 62.0903 55.2778C60.5103 53.6278 59.6803 51.5578 59.6803 49.0078H53.0703C53.0703 53.2078 54.5203 56.7178 57.4803 59.6878C60.4403 62.5778 63.9503 64.0278 68.1603 64.0278C72.3703 64.0278 75.8103 62.5778 78.7703 59.6878C81.7303 56.7278 83.1803 53.2178 83.1803 49.0078H76.6403C76.6403 51.5578 75.8103 53.6178 74.1603 55.2778H74.1403Z" fill="white"/>
<path d="M89.4297 46.5188V24.8787C89.4297 21.3387 92.2997 18.4688 95.8397 18.4688V46.5087H89.4297V46.5188Z" fill="white"/>
</g>
<defs>
<clipPath id="clip0_1393_2">
<rect width="300" height="64.9" fill="white"/>
</clipPath>
</defs>
</svg>
